<svg xmlns="http://www.w3.org/2000/svg" width="24" height="24" viewBox="0 0 24 24"><defs><style>.a{fill:#cf2948;}</style></defs><path class="a" d="M26.5,16.964a4.292,4.292,0,0,0-2.779-4.025V12.2a9.221,9.221,0,1,0-18.442,0v.739a4.306,4.306,0,0,0,1.491,8.331H8.311a.736.736,0,0,0,.733-.739V13.4a.736.736,0,0,0-.733-.739H7.6V12.2a6.9,6.9,0,1,1,13.794,0v.459h-.707a.736.736,0,0,0-.733.739v7.134a.736.736,0,0,0,.733.739h.328a5.068,5.068,0,0,1-4.269,3.057,1.088,1.088,0,0,0-1.061-.866h-2.4a1.083,1.083,0,0,0-1.086,1.1V25.8a1.083,1.083,0,0,0,1.086,1.1h2.4a1.065,1.065,0,0,0,1.061-.917,6.714,6.714,0,0,0,6.038-4.764A4.3,4.3,0,0,0,26.5,16.964Z" transform="translate(-2.5 -2.9)"/></svg>